<svg xmlns="http://www.w3.org/2000/svg" viewBox="0 0 100 100">
  <!-- SUCI symbol: torch with flame -->
  <rect width="100" height="100" fill="#ffffff"/>
  <!-- Torch handle -->
  <rect x="43" y="60" width="14" height="28" rx="3" fill="#880e4f"/>
  <rect x="40" y="78" width="20" height="6" rx="2" fill="#6a0136"/>
  <!-- Flame outer (orange-red) -->
  <path d="M50 8 C38 25 30 35 35 52 C38 60 50 62 50 62 C50 62 62 60 65 52 C70 35 62 25 50 8Z" fill="#e64a19"/>
  <!-- Flame middle (orange) -->
  <path d="M50 18 C42 30 37 40 40 52 C42 57 50 60 50 60 C50 60 58 57 60 52 C63 40 58 30 50 18Z" fill="#ff6d00"/>
  <!-- Flame inner (yellow) -->
  <path d="M50 28 C45 38 43 45 45 52 C46 56 50 58 50 58 C50 58 54 56 55 52 C57 45 55 38 50 28Z" fill="#ffd600"/>
</svg>
